<svg width="30" height="30" viewBox="0 0 30 30" fill="none" xmlns="http://www.w3.org/2000/svg">
<path d="M7.14284 9.28572H25L22.7343 17.2143C22.5636 17.8111 22.2031 18.3361 21.7074 18.7099C21.2118 19.0836 20.6079 19.2858 19.9871 19.2857H10.4157C9.71207 19.2861 9.03305 19.0269 8.50873 18.5576C7.9844 18.0884 7.65167 17.4422 7.57427 16.7429L6.42855 6.42857H3.57141" stroke="black" stroke-width="2" stroke-linecap="round" stroke-linejoin="round"/>
<path d="M9.99998 24.2857C10.789 24.2857 11.4286 23.6461 11.4286 22.8571C11.4286 22.0682 10.789 21.4286 9.99998 21.4286C9.211 21.4286 8.57141 22.0682 8.57141 22.8571C8.57141 23.6461 9.211 24.2857 9.99998 24.2857Z" fill="black"/>
<path d="M21.4286 24.2857C22.2175 24.2857 22.8571 23.6461 22.8571 22.8571C22.8571 22.0682 22.2175 21.4286 21.4286 21.4286C20.6396 21.4286 20 22.0682 20 22.8571C20 23.6461 20.6396 24.2857 21.4286 24.2857Z" fill="black"/>
</svg>
