<svg width="37" height="16" viewBox="0 0 37 16" fill="none" xmlns="http://www.w3.org/2000/svg">
<path d="M6.84 15.2C5.68 15.2 4.64 14.96 3.72 14.48C2.81333 14 2.09333 13.3467 1.56 12.52C1.04 11.6933 0.78 10.76 0.78 9.72C0.78 8.66667 1.04 7.73333 1.56 6.92C2.09333 6.09333 2.81333 5.44 3.72 4.96C4.62667 4.48 5.64667 4.24 6.78 4.24C7.88667 4.24 8.9 4.41333 9.82 4.76C10.7533 5.10667 11.4933 5.6 12.04 6.24L10.68 8.04C10.4 7.73333 10.0467 7.46 9.62 7.22C9.20667 6.98 8.77333 6.78667 8.32 6.64C7.86667 6.49333 7.40667 6.42 6.94 6.42C6.22 6.42 5.58 6.56667 5.02 6.86C4.47333 7.14 4.04667 7.52667 3.74 8.02C3.43333 8.51333 3.28 9.08 3.28 9.72C3.28 10.36 3.44 10.9267 3.76 11.42C4.08 11.9133 4.51333 12.3067 5.06 12.6C5.62 12.88 6.24667 13.02 6.94 13.02C7.48667 13.02 7.98667 12.96 8.44 12.84C8.89333 12.7067 9.30667 12.5333 9.68 12.32C10.0533 12.1067 10.3933 11.88 10.7 11.64L12.04 13.42C11.4267 13.9133 10.6733 14.3333 9.78 14.68C8.88667 15.0267 7.90667 15.2 6.84 15.2ZM16.648 15V0.2H19.128V15H16.648ZM30.0902 15.2C28.8502 15.2 27.7502 14.9667 26.7902 14.5C25.8302 14.0333 25.0702 13.3867 24.5102 12.56C23.9635 11.72 23.6902 10.7733 23.6902 9.72C23.6902 8.65333 23.9635 7.70667 24.5102 6.88C25.0702 6.05333 25.8302 5.40667 26.7902 4.94C27.7502 4.47333 28.8502 4.24 30.0902 4.24C31.3302 4.24 32.4235 4.47333 33.3702 4.94C34.3302 5.40667 35.0835 6.05333 35.6302 6.88C36.1768 7.70667 36.4502 8.65333 36.4502 9.72C36.4502 10.7733 36.1768 11.72 35.6302 12.56C35.0835 13.3867 34.3302 14.0333 33.3702 14.5C32.4235 14.9667 31.3302 15.2 30.0902 15.2ZM30.0902 13.02C30.8235 13.02 31.4835 12.88 32.0702 12.6C32.6568 12.3067 33.1235 11.9133 33.4702 11.42C33.8168 10.9267 33.9768 10.36 33.9502 9.72C33.9768 9.06667 33.8168 8.49333 33.4702 8C33.1235 7.50667 32.6568 7.12 32.0702 6.84C31.4835 6.56 30.8235 6.42 30.0902 6.42C29.3568 6.42 28.6902 6.56 28.0902 6.84C27.5035 7.12 27.0368 7.51333 26.6902 8.02C26.3568 8.51333 26.1968 9.08 26.2102 9.72C26.1968 10.36 26.3568 10.9267 26.6902 11.42C27.0368 11.9133 27.5035 12.3067 28.0902 12.6C28.6902 12.88 29.3568 13.02 30.0902 13.02Z" fill="black"/>
</svg>
