<svg width="16" height="17" viewBox="0 0 16 17" fill="none" xmlns="http://www.w3.org/2000/svg">
<path d="M8 0.72403C9.06087 0.72403 10.0783 1.14942 10.8284 1.90662C11.5786 2.66382 12 3.6908 12 4.76164C12 5.83248 11.5786 6.85946 10.8284 7.61666C10.0783 8.37386 9.06087 8.79925 8 8.79925C6.93913 8.79925 5.92172 8.37386 5.17157 7.61666C4.42143 6.85946 4 5.83248 4 4.76164C4 3.6908 4.42143 2.66382 5.17157 1.90662C5.92172 1.14942 6.93913 0.72403 8 0.72403ZM8 10.8181C12.42 10.8181 16 12.6249 16 14.8557V16.8745H0V14.8557C0 12.6249 3.58 10.8181 8 10.8181Z" fill="black"/>
</svg>
